<?xml version="1.0" encoding="UTF-8" standalone="no"?>
<!-- Created with Inkscape (http://www.inkscape.org/) -->

<svg
   width="493"
   height="312"
   viewBox="0 0 130.43958 82.55"
   version="1.1"
   id="svg6908"
   xml:space="preserve"
   inkscape:version="1.2 (dc2aeda, 2022-05-15)"
   sodipodi:docname="oldenet_dialog.svg"
   xmlns:inkscape="http://www.inkscape.org/namespaces/inkscape"
   xmlns:sodipodi="http://sodipodi.sourceforge.net/DTD/sodipodi-0.dtd"
   xmlns="http://www.w3.org/2000/svg"
   xmlns:svg="http://www.w3.org/2000/svg"><sodipodi:namedview
     id="namedview6910"
     pagecolor="#ffffff"
     bordercolor="#666666"
     borderopacity="1.0"
     inkscape:showpageshadow="2"
     inkscape:pageopacity="0.0"
     inkscape:pagecheckerboard="0"
     inkscape:deskcolor="#d1d1d1"
     inkscape:document-units="mm"
     showgrid="false"
     showguides="true"
     inkscape:zoom="1.3943765"
     inkscape:cx="130.88287"
     inkscape:cy="270.73033"
     inkscape:window-width="1390"
     inkscape:window-height="1205"
     inkscape:window-x="541"
     inkscape:window-y="60"
     inkscape:window-maximized="0"
     inkscape:current-layer="svg6908" /><defs
     id="defs6905" /><g
     inkscape:groupmode="layer"
     id="layer4"
     inkscape:label="Sidebar"><rect
       style="fill:#fffffa;fill-opacity:1;stroke-width:1.00284;stop-color:#000000"
       id="rect20399"
       width="43.391666"
       height="102.845"
       x="0"
       y="-12.713269" /></g><g
     transform="matrix(0.42883156,0,0,0.42883156,-19.457832,-77.954819)"
     id="g13"><path
       d="m 152.12673,189.59076 c 48.1044,-51.89686 80.80609,-28.84268 24.95042,7.41859 -17.7647,11.54373 -13.14055,14.90371 -1.19762,13.07402 16.86648,-2.56158 26.08151,0.66534 30.17337,3.85899 9.78056,7.65147 14.67085,1.96277 17.9643,-3.85899 6.55364,-11.54373 28.64308,0.99801 12.4752,13.07402 -12.64154,9.41462 -10.87838,20.02686 0.59882,26.14803 21.25775,11.31086 68.96294,33.73296 61.77723,57.61883 -2.92752,9.74729 -8.21701,18.92904 -20.1932,6.52037 -22.45538,-23.18725 -37.39236,-42.98125 -89.12289,-51.06518 -33.40029,-5.25623 -66.96692,-14.0055 -99.202855,2.36197 -15.169853,8.05067 -34.265237,13.24035 -38.323838,3.72593 -5.289488,-12.40867 21.723494,-22.62171 47.838258,-25.11675 16.966285,-1.6301 32.169405,-12.74134 8.915625,-18.39677 -28.643082,-8.81582 4.2582,-33.93257 24.95041,-27.94447 13.47323,3.92554 14.80392,-3.52632 18.39677,-7.41859 z"
       style="fill:none;stroke:#356ace;stroke-width:4.99008"
       id="path11" /><circle
       style="font-variation-settings:normal;opacity:1;fill:none;fill-opacity:1;stroke:#356ace;stroke-width:3;stroke-linecap:butt;stroke-linejoin:miter;stroke-miterlimit:4;stroke-dasharray:none;stroke-dashoffset:0;stroke-opacity:1;stop-color:#000000;stop-opacity:1"
       id="path4291"
       cx="123.0144"
       cy="212.12433"
       r="3.1967351" /><path
       style="fill:none;stroke:#000000;stroke-width:1px;stroke-linecap:butt;stroke-linejoin:miter;stroke-opacity:1"
       d="M 146.80277,206.83803 Z"
       id="path5162" /></g><g
     inkscape:label="Background"
     inkscape:groupmode="layer"
     id="layer1"><rect
       style="fill:#f0f0f0;fill-opacity:1;stroke-width:1.323;stop-color:#000000"
       id="rect7081"
       width="159.92316"
       height="119.72541"
       x="43.391666"
       y="-14.1704" /></g></svg>
